Coordinates
version=1
nRows=4
nColumns=63
inDegrees=yes

Units are S.I. units (second, meters, Newtons, ...)
If the header above contains a line with 'inDegrees', this indicates whether rotational values are in degrees (yes) or radians (no).

endheader
time	pelvis_tilt	pelvis_list	pelvis_rotation	pelvis_tx	pelvis_ty	pelvis_tz	hip_flexion_r	hip_adduction_r	hip_rotation_r	knee_angle_r	knee_angle_r_beta	ankle_angle_r	subtalar_angle_r	mtp_angle_r	hip_flexion_l	hip_adduction_l	hip_rotation_l	knee_angle_l	knee_angle_l_beta	ankle_angle_l	subtalar_angle_l	mtp_angle_l	L5_S1_Flex_Ext	L5_S1_Lat_Bending	L5_S1_axial_rotation	L4_L5_Flex_Ext	L4_L5_Lat_Bending	L4_L5_axial_rotation	L3_L4_Flex_Ext	L3_L4_Lat_Bending	L3_L4_axial_rotation	L2_L3_Flex_Ext	L2_L3_Lat_Bending	L2_L3_axial_rotation	L1_L2_Flex_Ext	L1_L2_Lat_Bending	L1_L2_axial_rotation	L1_T12_Flex_Ext	L1_T12_Lat_Bending	L1_T12_axial_rotation	Abs_r3	Abs_r2	Abs_r1	Abs_t1	Abs_t2	neck_flexion	neck_bending	neck_rotation	arm_flex_r	arm_add_r	arm_rot_r	elbow_flex_r	pro_sup_r	wrist_flex_r	wrist_dev_r	arm_flex_l	arm_add_l	arm_rot_l	elbow_flex_l	pro_sup_l	wrist_flex_l	wrist_dev_l
      0.00000000	     -0.44845994	     -5.67801462	    103.17141340	      0.23563106	      0.86768836	      0.68232346	      0.16953090	     -1.69971359	     -3.15768490	      1.77714932	      0.03101711	     12.89099866	     -1.48491660	      0.00000000	      2.27283877	      3.07048634	     -3.80791056	      1.13017017	      0.01972519	     14.54754854	      7.90881618	      0.00000000	     -0.09100667	     -0.32432291	      0.41224670	     -0.16900849	     -0.43134947	      0.43801212	     -0.14951486	     -0.78855873	      0.43801212	     -0.10401153	     -0.78855873	      0.36071586	     -0.08450880	     -0.66135928	      0.33495044	     -0.05200121	     -0.50237619	      0.30918503	     -0.65005157	     -3.66880564	      2.29279248	      0.00000000	      0.00000000	     17.08676578	      1.43617875	     -2.45007832	     10.04876543	    -12.13377583	     46.07837111	     54.26052066	     37.87355254	      1.65700376	     17.50912306	     10.20524111	    -15.10497955	     38.48005876	     57.91389269	     89.02557427	    -13.51920547	     -3.98359744
      0.01785714	     -0.49761976	     -5.42601016	    104.89400683	      0.23412641	      0.86700714	      0.67754185	     -0.91347232	     -1.47936234	     -0.28656615	      0.83918693	      0.01464658	     12.95056811	     -7.27699565	      0.00000000	      1.92716903	      2.95008790	     -2.88194260	      1.51079230	      0.02636830	     15.38299503	      8.84677495	      0.00000000	     -0.06500453	     -0.33343096	     -0.11319619	     -0.12071992	     -0.44346317	     -0.12027095	     -0.10679595	     -0.81070402	     -0.12027095	     -0.07429368	     -0.81070402	     -0.09904667	     -0.06036321	     -0.67993240	     -0.09197191	     -0.03714359	     -0.51648455	     -0.08489714	     -0.46432089	     -3.77183765	     -0.62956326	      0.00000000	      0.00000000	     16.55498995	      1.67690968	     -0.78250550	      9.27592092	    -11.31047962	     46.56243422	     49.05395591	     46.49466805	     -1.05867434	     13.76981668	      7.21561751	    -16.14753313	     36.76108042	     55.89049444	     88.84468193	    -15.64043067	     -1.28219302
      0.03571429	     -0.54793488	     -5.19633635	    106.20192390	      0.23309431	      0.86644353	      0.67396020	     -1.61231505	     -1.32221891	      0.57922851	      0.54458216	      0.00950475	     13.20522108	    -10.12723227	      0.00000000	      1.70381977	      2.84329785	     -1.63159175	      1.98386898	      0.03462505	     15.76281891	      8.69770434	      0.00000000	     -0.06281941	     -0.33982053	     -0.46650561	     -0.11666193	     -0.45196130	     -0.49566221	     -0.10320602	     -0.82623963	     -0.49566221	     -0.07179631	     -0.82623963	     -0.40819241	     -0.05833411	     -0.69296202	     -0.37903580	     -0.03589501	     -0.52638200	     -0.34987920	     -0.44871280	     -3.84411779	     -2.59456423	      0.00000000	      0.00000000	     16.40755679	      1.80883638	      0.44462477	      8.73943953	    -10.82705548	     47.19556428	     44.12676802	     54.29180396	     -2.48170941	     12.26221213	      5.38656859	    -17.04114911	     37.02076648	     53.16488760	     88.74238185	    -16.47672664	      0.87790023
      0.05357143	     -0.59607361	     -5.02072631	    107.25057658	      0.23227297	      0.86584883	      0.67111636	     -2.14681716	     -1.19614779	      0.49431451	      0.43882046	      0.00765886	     13.45388135	    -11.46743752	      0.00000000	      1.57319746	      2.77932519	     -0.05201986	      2.47440059	      0.04318644	     15.77820790	      7.66609930	      0.00000000	     -0.06877376	     -0.34522429	     -0.70239900	     -0.12771975	     -0.45914831	     -0.74629893	     -0.11298841	     -0.83937834	     -0.74629893	     -0.07860153	     -0.83937834	     -0.61459912	     -0.06386331	     -0.70398137	     -0.57069919	     -0.03929733	     -0.53475243	     -0.52679925	     -0.49124409	     -3.90524622	     -3.90653250	      0.00000000	      0.00000000	     16.54570481	      1.84457351	      1.26109484	      8.25505782	    -10.51089577	     47.50260883	     39.44593195	     62.91282937	     -1.81229806	     12.29067942	      4.24258283	    -17.77978623	     38.34280185	     50.11896611	     88.66355859	    -15.53394108	      2.98573273
